<?xml version="1.0" encoding="UTF-8"?>
<svg width="256px" height="256px" viewBox="0 0 256 256" version="1.1" xmlns="http://www.w3.org/2000/svg" xmlns:xlink="http://www.w3.org/1999/xlink">
    <!-- Generator: Sketch 40.1 (33804) - http://www.bohemiancoding.com/sketch -->
    <title>256</title>
    <desc>Created with Sketch.</desc>
    <defs>
        <linearGradient x1="85.1611679%" y1="13.4282081%" x2="15.0981826%" y2="87.1603695%" id="linearGradient-1">
            <stop stop-color="#68A36A" offset="0%"></stop>
            <stop stop-color="#454545" offset="100%"></stop>
        </linearGradient>
    </defs>
    <g id="Page-1" stroke="none" stroke-width="1" fill="none" fill-rule="evenodd">
        <g id="256">
            <ellipse id="Oval" fill="#BDBDBD" cx="128.096553" cy="128.49701" rx="122.096553" ry="119.49701"></ellipse>
            <ellipse id="Oval-2" stroke="#494E49" stroke-width="8" fill="url(#linearGradient-1)" cx="128.886898" cy="127.547309" rx="109.886898" ry="107.547309"></ellipse>
            <path d="M128.632868,203.21268 C164.328615,203.21268 193.265736,185.142628 193.265736,149.513053 C193.265736,113.883478 164.328615,85 128.632868,85 C92.9371207,85 64,113.883478 64,149.513053 C64,185.142628 92.9371207,203.21268 128.632868,203.21268 Z" id="Oval-4" stroke="#000000" stroke-width="4" fill="#E6D6BF"></path>
            <path d="M193.610624,99.9361569 C193.610624,74.0140332 163.770722,53 126.961337,53 C90.1519527,53 60.3120507,74.0140332 60.3120507,99.9361569 C60.3120507,114.166773 46.1099366,138.264725 60.3120507,146.872314 C71.9801418,153.944087 110.35941,146.872314 126.961337,146.872314 C144.670073,146.872314 181.67467,154.806344 193.610624,146.872314 C206.484748,138.314665 193.610624,113.38733 193.610624,99.9361569 Z" id="Oval-3" stroke="#000000" stroke-width="4" fill="#577351"></path>
            <text id="SO" font-family="DINAlternate-Bold, DIN Alternate" font-size="42" font-weight="bold" fill="#000000">
                <tspan x="103.668669" y="185">SO</tspan>
            </text>
            <polyline id="Path-2" points="130.589283 101 121 115.689743 134.191339 115.052894"></polyline>
            <polygon id="Star" stroke="#C3BB27" stroke-width="4" fill="#F4F378" points="128.427028 120.454727 113.330295 128.376837 116.213514 111.59754 104 99.7143754 120.878661 97.2663089 128.427028 82 135.975395 97.2663089 152.854057 99.7143754 140.640543 111.59754 143.523762 128.376837"></polygon>
        </g>
    </g>
</svg>